<svg id="Layer_1" enable-background="new 0 0 512 512" viewBox="0 0 512 512" xmlns="http://www.w3.org/2000/svg"><g><g><path d="m512 256c-1.5 85.6-16.6 154.5-59.7 196.3-41.8 43.1-110.7 58.2-196.3 59.7-85.6-1.5-154.5-16.6-196.3-59.7-43.1-41.8-58.2-110.7-59.7-196.3 1.5-85.6 16.6-154.5 59.7-196.3 41.8-43.1 110.7-58.2 196.3-59.7 85.6 1.5 154.5 16.6 196.3 59.7 43.1 41.8 58.2 110.7 59.7 196.3z" fill="#616484"/><path d="m452.3 59.7c-41.8-43.1-110.7-58.2-196.3-59.7v512c85.6-1.5 154.5-16.6 196.3-59.7 43.1-41.8 58.1-110.7 59.7-196.3-1.5-85.6-16.6-154.5-59.7-196.3z" fill="#424566"/></g><g><path d="m393.8 373.4c0 23.6-19.1 42.7-42.7 42.7h-190.2c-23.6 0-42.7-19.1-42.7-42.7l.1-23.8c2.6-50.9 63.2-91.5 137.7-91.5s135.1 40.7 137.7 91.6zm-139.1-277.5c-35.5 0-64.2 28.8-64.2 64.2s28.8 64.2 64.2 64.2 64.2-28.8 64.2-64.2-28.7-64.2-64.2-64.2z" fill="#f0f2ff"/><g fill="#cad4ff"><path d="m318.9 160.1c0-35-28.1-63.5-62.9-64.2v128.4c34.9-.7 62.9-29.2 62.9-64.2z"/><path d="m393.7 349.6c-2.6-50.9-63.3-91.6-137.7-91.6v158h95.1c23.6 0 42.7-19.1 42.7-42.7z"/></g></g></g></svg>